HIERARCHY
ROOT Hips
{
  OFFSET 3.66124 103.061 166.284
  CHANNELS 6 Xposition Yposition Zposition Zrotation Xrotation Yrotation
  JOINT RightUpLeg
  {
    OFFSET -8.9458 -8.66707 0.101652
    CHANNELS 3 Zrotation Xrotation Yrotation
    JOINT RightLeg
    {
      OFFSET 0 -44.4227 1.3727
      CHANNELS 3 Zrotation Xrotation Yrotation
      JOINT RightFoot
      {
        OFFSET 0.253549 -42.0924 -1.46059
        CHANNELS 3 Zrotation Xrotation Yrotation
        JOINT RightToes
        {
          OFFSET 0.04 -4.41509 8.4991
          CHANNELS 3 Zrotation Xrotation Yrotation
          End Site
          {
            OFFSET -0.08 -0.137448 9.77979
          }
        }
      }
    }
  }
  JOINT Spine
  {
    OFFSET 0 11.8905 0
    CHANNELS 3 Zrotation Xrotation Yrotation
    JOINT Spine1
    {
      OFFSET 0 25.6574 0.127663
      CHANNELS 3 Zrotation Xrotation Yrotation
      JOINT HEad
      {
        OFFSET 0 8.73416 0.011341
        CHANNELS 3 Zrotation Xrotation Yrotation
        End Site
        {
          OFFSET -0.29 12.7742 2.51395
        }
      }
      JOINT LeftShoulder1
      {
        OFFSET 8.99 -0.362252 -0.22
        CHANNELS 3 Zrotation Xrotation Yrotation
        JOINT LeftArm
        {
          OFFSET 10.2827 -0.00338 0.322123
          CHANNELS 3 Zrotation Xrotation Yrotation
          JOINT LeftForeArm
          {
            OFFSET 32.7669 0.099144 -1.42434
            CHANNELS 3 Zrotation Xrotation Yrotation
            JOINT LeftHand
            {
              OFFSET 27.5643 0.085362 1.02216
              CHANNELS 3 Zrotation Xrotation Yrotation
              End Site
              {
                OFFSET 16.7443 -0.6 1.50291
              }
            }
          }
        }
      }
      JOINT RightShoulder
      {
        OFFSET -8.99 -0.362252 -0.22
        CHANNELS 3 Zrotation Xrotation Yrotation
        JOINT RightArm
        {
          OFFSET -10.2827 -0.00338 0.322123
          CHANNELS 3 Zrotation Xrotation Yrotation
          JOINT RightForeArm
          {
            OFFSET -32.8971 0.099144 -1.42434
            CHANNELS 3 Zrotation Xrotation Yrotation
            JOINT RightHand
            {
              OFFSET -27.4921 0.085362 1.02216
              CHANNELS 3 Zrotation Xrotation Yrotation
              End Site
              {
                OFFSET -16.6312 -0.6 1.50291
              }
            }
          }
        }
      }
    }
  }
  JOINT LeftUpLeg
  {
    OFFSET 8.9458 -8.66707 0.101652
    CHANNELS 3 Zrotation Xrotation Yrotation
    JOINT LeftLeg
    {
      OFFSET 0 -44.4227 1.3727
      CHANNELS 3 Zrotation Xrotation Yrotation
      JOINT LeftFoot
      {
        OFFSET -0.253549 -42.0924 -1.46059
        CHANNELS 3 Zrotation Xrotation Yrotation
        JOINT LeftToes
        {
          OFFSET -0.04 -4.41509 8.4991
          CHANNELS 3 Zrotation Xrotation Yrotation
          End Site
          {
            OFFSET 0.08 -0.047448 9.77979
          }
        }
      }
    }
  }
}
MOTION
Frames:	16
Frame Time:	0.0166667
-38.0908	52.8934	42.485	48.2981	47.0868	123.936	-7.44997	-27.4462	13.5572	61.9857	79.3425	-78.0695	1.07473	3.76843	1.75268	4.62E-02	5.34E-04	6.63E-01	1.49958	2.94924	1.00375	2.9539	5.92611	1.93162	13.2361	30.1354	58.0727	0.00E+00	6.36E-15	0.00E+00	-42.387	44.081	-58.4936	3.28264	28.0902	-31.2316	-22.0664	2.57522	28.6737	0.00E+00	6.36E-15	0.00E+00	78.7082	42.406	30.0307	-1.36992	1.37668	5.05641	8.27833	5.01034	1.60642	6.01E+01	-6.82E+01	8.29E+01	-157.193	57.6752	147.257	33.2327	-15.8313	-28.7915	1.27E-14	4.77E-14	1.59E-15
-38.0873	52.8877	42.493	48.3177	47.098	123.923	-7.4428	-27.4252	13.5618	61.9864	79.3392	-78.0677	1.07915	3.75321	1.76643	4.62E-02	5.34E-04	6.63E-01	1.50104	2.96079	1.00483	2.95576	5.94923	1.93012	13.2563	30.154	58.0635	3.18E-15	6.36E-15	0.00E+00	-42.342	44.0725	-58.5129	3.28996	28.0879	-31.2606	-22.0514	2.57594	28.6761	3.18E-15	6.36E-15	0.00E+00	78.6915	42.426	30.0555	-1.38468	1.34905	5.08076	8.25068	5.02526	1.5934	6.00E+01	-6.81E+01	82.8875	-157.236	57.6959	147.303	33.2448	-15.8029	-28.8087	9.54E-15	5.17E-14	-7.95E-16
-38.0799	52.8865	42.501	48.3447	47.1256	123.903	-7.45446	-27.3911	13.5923	62.1042	79.3039	-78.1949	1.05841	3.74553	1.79936	4.62E-02	5.34E-04	6.63E-01	1.50156	2.97261	1.00595	2.95736	5.97289	1.92844	13.2644	30.1871	58.064	3.18E-15	3.18E-15	6.36E-15	-42.3524	44.0581	-58.4766	3.30618	28.0993	-31.2956	-22.0083	2.58531	28.6696	3.18E-15	3.18E-15	6.36E-15	78.6969	42.428	30.0631	-1.39496	1.34343	5.09003	8.21845	5.03066	1.58582	6.00E+01	-68.1105	8.28E+01	-157.269	57.7085	147.32	33.2856	-15.7878	-28.785	1.59E-14	4.06E-14	-7.95E-16
-38.0669	52.8884	42.507	48.3511	47.1458	123.898	-7.46934	-27.3714	13.632	62.2701	79.2524	-78.3856	1.01416	3.74396	1.80526	4.62E-02	5.34E-04	6.63E-01	1.50243	2.98243	1.00708	2.95932	5.99258	1.92713	13.2619	30.2209	58.0762	-1.77E-31	3.18E-15	3.18E-15	-42.388	44.043	-58.4195	3.33671	28.1114	-31.3413	-21.9436	2.60939	28.6724	-1.77E-31	3.18E-15	3.18E-15	78.6968	42.4186	30.0792	-1.40665	1.34343	5.09534	8.19146	5.05556	1.57376	59.927	-68.0786	82.8142	-157.292	57.7223	147.318	33.2493	-15.7728	-28.8222	1.27E-14	4.29E-14	8.75E-15
-38.0516	52.8913	42.51	48.3607	47.1683	123.885	-7.47706	-27.3422	13.6633	62.362	79.2206	-78.4972	0.973638	3.74359	1.84073	4.62E-02	5.34E-04	6.63E-01	1.5035	2.99138	1.00817	2.96124	6.01047	1.92678	13.244	30.2727	58.1002	0.00E+00	0.00E+00	-3.18E-15	-42.4269	44.0314	-58.3552	3.367	28.0991	-31.3897	-21.8792	2.65427	28.6811	0.00E+00	0.00E+00	-3.18E-15	78.6846	42.4062	30.0959	-1.40442	1.35834	5.10377	8.17618	5.06326	1.56156	5.99E+01	-6.80E+01	8.28E+01	-157.316	57.739	147.294	33.299	-15.763	-28.7362	1.27E-14	4.29E-14	1.11E-14
-38.0342	52.896	42.512	48.3744	47.1956	123.874	-7.48237	-27.3063	13.6942	62.4477	79.1949	-78.5886	0.939953	3.74451	1.85541	4.62E-02	5.34E-04	6.63E-01	1.50463	3.00172	1.00918	2.96261	6.03114	1.92796	13.2338	30.3127	58.1086	3.18E-15	3.18E-15	0.00E+00	-42.4288	44.0366	-58.3314	3.39547	28.0875	-31.4533	-21.8351	2.69838	28.6948	3.18E-15	3.18E-15	0.00E+00	78.6699	42.3999	30.1123	-1.41091	1.37317	5.11867	8.17785	5.06937	1.54133	5.98E+01	-68.0017	8.27E+01	-157.345	57.7655	147.29	33.1883	-15.7368	-28.8259	9.54E-15	4.85E-14	1.59E-15
-38.0175	52.904	42.512	48.3785	47.2186	123.868	-7.48152	-27.2792	13.7275	62.5055	79.1773	-78.6451	0.91333	3.75287	1.84231	4.62E-02	5.34E-04	6.63E-01	1.50578	3.01148	1.01004	2.96305	6.05067	1.93126	13.2218	30.3255	58.1246	-3.18E-15	-9.54E-15	3.18E-15	-42.4154	44.0262	-58.317	3.42861	28.0864	-31.5324	-21.8201	2.73547	28.7156	-3.18E-15	-9.54E-15	3.18E-15	78.6602	42.4081	30.1299	-1.42892	1.37647	5.1404	8.17282	5.07049	1.5265	5.97E+01	-67.9715	8.27E+01	-157.386	57.8005	147.292	33.2435	-15.7158	-28.738	1.27E-14	4.45E-14	-7.95E-16
-38.0015	52.9137	42.508	48.3627	47.2292	123.877	-7.47715	-27.2737	13.7481	62.5368	79.1773	-78.6624	0.900905	3.76115	1.83578	4.62E-02	5.34E-04	6.63E-01	1.50689	3.01896	1.01072	2.96417	6.06574	1.94011	13.2221	30.2941	58.1258	-5.30E-31	-9.54E-15	-3.18E-15	-42.3996	44.014	-58.3263	3.46142	28.1005	-31.6118	-21.8147	2.75882	28.7465	-5.30E-31	-9.54E-15	-3.18E-15	78.625	42.3908	30.147	-1.44083	1.3615	5.18321	8.16694	5.07107	1.51682	5.97E+01	-6.80E+01	8.27E+01	-157.44	57.8376	147.319	33.3437	-15.6926	-28.6181	1.27E-14	4.77E-14	-7.95E-16
-37.9867	52.9227	42.503	48.3519	47.2389	123.887	-7.46763	-27.2661	13.7723	62.582	79.1749	-78.6928	0.898613	3.77118	1.81675	4.62E-02	5.34E-04	6.63E-01	1.50783	3.02737	1.01117	2.96613	6.08266	1.94589	13.2313	30.2473	58.1246	-3.18E-15	-3.18E-15	0.00E+00	-42.3867	44.0038	-58.3359	3.48715	28.083	-31.6682	-21.8113	2.78411	28.7959	-3.18E-15	-3.18E-15	0.00E+00	78.6176	42.3706	30.1452	-1.463	1.3418	5.23083	8.16227	5.07503	1.51435	5.97E+01	-6.80E+01	8.27E+01	-157.489	57.8738	147.371	33.3694	-15.6631	-28.5998	6.36E-15	3.98E-14	-1.59E-15
-37.9778	52.9326	42.496	48.3334	47.2427	123.918	-7.47578	-27.2646	13.7587	62.5511	79.1905	-78.6487	0.909484	3.78153	1.8117	4.62E-02	5.34E-04	6.63E-01	1.50854	3.03403	1.01145	2.96909	6.09606	1.9505	13.2625	30.2033	58.0963	-3.18E-15	0.00E+00	0.00E+00	-42.3565	44.0076	-58.363	3.51239	28.0626	-31.7075	-21.7923	2.80789	28.8408	-3.18E-15	0.00E+00	0.00E+00	78.609	42.3487	30.1482	-1.48747	1.30837	5.28583	8.16134	5.0886	1.5119	5.97E+01	-6.80E+01	8.27E+01	-157.539	57.9102	147.438	33.311	-15.6267	-28.6749	1.59E-14	4.29E-14	5.57E-15
-37.9755	52.9414	42.483	48.3065	47.2377	123.958	-7.49671	-27.2729	13.7271	62.5239	79.2089	-78.5893	0.925705	3.78567	1.79756	4.62E-02	5.34E-04	6.63E-01	1.50922	3.03574	1.01162	2.97362	6.10197	1.95776	13.2998	30.1816	58.039	-6.36E-15	3.18E-15	6.36E-15	-42.3122	44.0208	-58.414	3.53252	28.0601	-31.7363	-21.7771	2.84146	28.8788	-6.36E-15	3.18E-15	6.36E-15	78.6033	42.3061	30.138	-1.51758	1.30687	5.35857	8.17384	5.09968	1.4912	5.97E+01	-6.80E+01	8.28E+01	-157.581	57.9417	147.496	33.2648	-15.5854	-28.727	9.54E-15	4.13E-14	4.77E-15
-37.978	52.9431	42.47	48.2783	47.2268	123.997	-7.51459	-27.3048	13.7725	62.7651	79.1627	-78.7941	0.93494	3.79537	1.77741	4.62E-02	5.34E-04	0.662642	1.50999	3.03533	1.01163	2.98144	6.09843	1.96173	13.3273	30.2005	58.0014	-6.36E-15	0.00E+00	-3.18E-15	-42.2598	44.0326	-58.471	3.55302	28.082	-31.7428	-21.7631	2.85118	28.8958	-6.36E-15	0.00E+00	-3.18E-15	78.6191	42.2707	30.0959	-1.54939	1.35117	5.45798	8.20195	5.10265	1.44319	59.6781	-68.0606	8.28E+01	-157.615	57.968	147.528	33.3235	-15.5398	-28.6526	1.27E-14	4.06E-14	7.95E-16
-37.9853	52.9368	42.455	48.2593	47.2218	124.032	-7.54771	-27.3364	13.8325	63.0862	79.0973	-79.0713	0.947264	3.8031	1.78808	4.62E-02	5.34E-04	6.63E-01	1.51084	3.03373	1.01144	2.98803	6.09313	1.96256	13.3495	30.2492	57.9754	-3.18E-15	-3.18E-15	3.18E-15	-42.1999	44.0547	-58.5336	3.56782	28.1138	-31.7301	-21.7471	2.81758	28.8964	-3.18E-15	-3.18E-15	3.18E-15	78.6471	42.2377	30.0471	-1.59081	1.4215	5.5686	8.24548	5.1048	1.37589	5.97E+01	-6.81E+01	82.8909	-157.672	57.9927	147.572	33.4189	-15.4928	-28.5411	9.54E-15	3.98E-14	2.39E-15
-37.998	52.9255	42.439	48.2574	47.2281	124.053	-7.58959	-27.3498	13.8806	63.3517	79.0402	-79.2889	0.963089	3.80925	1.80647	4.62E-02	5.34E-04	6.63E-01	1.51173	3.03184	1.01099	2.99342	6.09045	1.95756	13.3541	30.3134	57.9582	-3.18E-15	6.36E-15	-6.36E-15	-42.1335	44.0842	-58.6038	3.58279	28.1217	-31.7119	-21.7536	2.77403	28.8816	-3.18E-15	6.36E-15	-6.36E-15	78.693	42.1959	29.9696	-1.64696	1.50826	5.70214	8.28848	5.12107	1.29182	5.97E+01	-6.81E+01	82.9453	-157.76	58.0264	147.658	33.3249	-15.441	-28.6539	9.54E-15	4.21E-14	4.77E-15
-38.0132	52.91	42.425	48.2547	47.2328	124.062	-7.61485	-27.3726	13.9615	63.6378	78.9772	-79.5332	0.985542	3.8159	1.79833	4.62E-02	5.34E-04	0.662642	1.51264	3.03057	1.01025	2.99887	6.08888	1.94854	13.3479	30.3911	57.9557	-3.18E-15	3.18E-15	0.00E+00	-42.0761	44.1042	-58.6507	3.5916	28.1158	-31.694	-21.7635	2.72881	28.8632	-3.18E-15	3.18E-15	0.00E+00	78.7637	42.1543	29.8612	-1.71682	1.61299	5.8607	8.33468	5.14302	1.19357	5.97E+01	-6.81E+01	8.31E+01	-157.895	58.0596	147.769	33.4279	-15.425	-28.5632	1.27E-14	4.21E-14	-7.95E-16
-38.0273	52.8901	42.414	48.2515	47.2315	124.058	-7.6182	-27.4039	14.0449	63.8839	78.9305	-79.7352	1.00977	3.82071	1.7415	4.62E-02	5.34E-04	0.662642	1.51354	3.03084	1.00916	3.00103	6.0898	1.94087	13.3407	30.4504	57.9622	1.77E-31	3.18E-15	-3.18E-15	-42.0235	44.0993	-58.6859	3.59031	28.1161	-31.6743	-21.7855	2.68985	28.8472	1.77E-31	3.18E-15	-3.18E-15	78.8049	42.121	29.7798	-1.7636	1.69252	6.02506	8.36937	5.17954	1.10787	59.7468	-6.80E+01	83.222	-158.049	58.0957	147.906	33.5396	-15.4321	-28.4932	1.91E-14	4.13E-14	3.98E-15
